<svg width="533" height="100" viewBox="0 0 533 100" fill="none" xmlns="http://www.w3.org/2000/svg">
<path d="M0.375 71.4375H22.1875C22.4792 73.5208 23.3542 75.375 24.8125 77C26.3125 78.5833 28.25 79.8333 30.625 80.75C33 81.6667 35.6667 82.125 38.625 82.125C41.5 82.125 44 81.75 46.125 81C48.2917 80.2083 49.9792 79.125 51.1875 77.75C52.3958 76.3333 53 74.6667 53 72.75C53 70.5 52.2083 68.6667 50.625 67.25C49.0833 65.8333 46.0208 64.4167 41.4375 63L32.8125 60.375C25.3125 58.0833 19.625 54.9167 15.75 50.875C11.9167 46.8333 10 41.7292 10 35.5625C10 29.6875 11.5417 24.5625 14.625 20.1875C17.75 15.7708 22.0208 12.3542 27.4375 9.9375C32.8958 7.47917 39.1458 6.25 46.1875 6.25C53.5625 6.25 59.9375 7.375 65.3125 9.625C70.7292 11.875 74.9167 15.0833 77.875 19.25C80.8333 23.4167 82.3333 28.4167 82.375 34.25H61.1875C61.1458 32.125 60.5 30.2708 59.25 28.6875C58.0417 27.1042 56.3542 25.875 54.1875 25C52.0625 24.0833 49.5417 23.625 46.625 23.625C43.875 23.625 41.4792 24.0417 39.4375 24.875C37.4375 25.7083 35.9167 26.8125 34.875 28.1875C33.8333 29.5625 33.3125 31.0833 33.3125 32.75C33.3125 34.9583 34.1458 36.8333 35.8125 38.375C37.5208 39.9167 40.3958 41.2917 44.4375 42.5L53.4375 45.1875C61.3542 47.5208 67.1667 50.5625 70.875 54.3125C74.625 58.0625 76.5 63.1042 76.5 69.4375C76.5 75.3542 74.9167 80.5833 71.75 85.125C68.5833 89.625 64.1458 93.1667 58.4375 95.75C52.7292 98.2917 45.9792 99.5625 38.1875 99.5625C30.5625 99.5625 23.9167 98.4583 18.25 96.25C12.625 94 8.25 90.7917 5.125 86.625C2.04167 82.4167 0.458333 77.3542 0.375 71.4375ZM158.44 29.9375L144.003 98H123.128L125.44 87.25H125.003C123.711 89.7083 121.982 91.875 119.815 93.75C117.648 95.5833 115.148 97.0208 112.315 98.0625C109.523 99.1042 106.523 99.625 103.315 99.625C98.9817 99.625 95.2108 98.7917 92.0025 97.125C88.8358 95.4583 86.3775 93.1458 84.6275 90.1875C82.9192 87.1875 82.065 83.7292 82.065 79.8125C82.065 78.3958 82.1275 76.8958 82.2525 75.3125C82.4192 73.7292 82.6483 72.2917 82.94 71L91.6275 29.9375H113.128L105.128 67.5C105.003 68.25 104.898 69.0417 104.815 69.875C104.732 70.6667 104.69 71.3958 104.69 72.0625C104.69 75.2708 105.565 77.7292 107.315 79.4375C109.065 81.1042 111.565 81.9375 114.815 81.9375C117.107 81.9375 119.19 81.4167 121.065 80.375C122.94 79.3333 124.503 77.875 125.753 76C127.044 74.0833 127.961 71.8333 128.503 69.25L136.878 29.9375H158.44ZM197.88 99C194.547 99 191.443 98.4375 188.568 97.3125C185.693 96.1875 183.255 94.6042 181.255 92.5625C179.255 90.5208 177.838 88.1458 177.005 85.4375H176.568L173.88 98H153.068L172.255 7.8125H193.755L186.88 39.875C186.963 39.875 187.026 39.875 187.068 39.875C187.151 39.875 187.255 39.875 187.38 39.875C189.422 36.4167 192.255 33.7292 195.88 31.8125C199.547 29.8958 203.568 28.9375 207.943 28.9375C212.693 28.9375 216.797 30 220.255 32.125C223.755 34.25 226.443 37.3125 228.318 41.3125C230.234 45.2708 231.193 50.0417 231.193 55.625C231.193 61.6667 230.359 67.3125 228.693 72.5625C227.068 77.7708 224.776 82.375 221.818 86.375C218.859 90.3333 215.338 93.4375 211.255 95.6875C207.213 97.8958 202.755 99 197.88 99ZM192.693 81.875C194.984 81.875 197.13 81.2917 199.13 80.125C201.13 78.9167 202.859 77.25 204.318 75.125C205.818 73 206.984 70.5625 207.818 67.8125C208.651 65.0208 209.068 62.0417 209.068 58.875C209.068 54.7917 208.068 51.5417 206.068 49.125C204.068 46.7083 201.338 45.5 197.88 45.5C195.588 45.5 193.422 46.125 191.38 47.375C189.38 48.5833 187.63 50.2708 186.13 52.4375C184.63 54.6042 183.443 57.0833 182.568 59.875C181.693 62.625 181.255 65.5833 181.255 68.75C181.255 72.6667 182.297 75.8333 184.38 78.25C186.463 80.6667 189.234 81.875 192.693 81.875ZM260.07 98.875C253.153 98.875 247.695 97.625 243.695 95.125C239.737 92.625 237.758 88.875 237.758 83.875C237.758 83.0417 237.799 82 237.883 80.75C238.008 79.5 238.216 78.1667 238.508 76.75L244.633 47.5H234.508L238.008 31.5H248.133L251.57 15.125H273.07L269.57 31.5H283.195L279.758 47.5H266.195L260.508 74.3125C260.383 74.8125 260.278 75.4167 260.195 76.125C260.112 76.7917 260.07 77.3542 260.07 77.8125C260.07 79.7708 260.716 81.1875 262.008 82.0625C263.341 82.8958 265.403 83.3125 268.195 83.3125C268.987 83.3125 269.653 83.3125 270.195 83.3125C270.778 83.2708 271.258 83.2292 271.633 83.1875C272.049 83.1042 272.403 83.0208 272.695 82.9375L269.32 98.0625C268.362 98.3125 267.008 98.5 265.258 98.625C263.549 98.7917 261.82 98.875 260.07 98.875ZM279.823 98L294.323 29.9375H315.885L301.385 98H279.823ZM309.073 22.125C306.031 22.125 303.448 21.0833 301.323 19C299.198 16.875 298.135 14.3542 298.135 11.4375C298.135 8.47917 299.198 5.95833 301.323 3.875C303.448 1.75 306.031 0.6875 309.073 0.6875C312.156 0.6875 314.739 1.75 316.823 3.875C318.948 5.95833 320.01 8.47917 320.01 11.4375C320.01 14.3542 318.948 16.875 316.823 19C314.739 21.0833 312.156 22.125 309.073 22.125ZM345.325 98.875C338.408 98.875 332.95 97.625 328.95 95.125C324.992 92.625 323.013 88.875 323.013 83.875C323.013 83.0417 323.054 82 323.138 80.75C323.263 79.5 323.471 78.1667 323.763 76.75L329.888 47.5H319.763L323.263 31.5H333.388L336.825 15.125H358.325L354.825 31.5H368.45L365.013 47.5H351.45L345.763 74.3125C345.638 74.8125 345.533 75.4167 345.45 76.125C345.367 76.7917 345.325 77.3542 345.325 77.8125C345.325 79.7708 345.971 81.1875 347.263 82.0625C348.596 82.8958 350.658 83.3125 353.45 83.3125C354.242 83.3125 354.908 83.3125 355.45 83.3125C356.033 83.2708 356.513 83.2292 356.888 83.1875C357.304 83.1042 357.658 83.0208 357.95 82.9375L354.575 98.0625C353.617 98.3125 352.263 98.5 350.513 98.625C348.804 98.7917 347.075 98.875 345.325 98.875ZM361.765 98L380.953 7.8125H402.515L383.328 98H361.765ZM419.33 56.3125H445.392C445.476 56.1042 445.517 55.8125 445.517 55.4375C445.517 55.0625 445.517 54.7083 445.517 54.375C445.517 52.375 445.059 50.5833 444.142 49C443.267 47.375 441.997 46.0833 440.33 45.125C438.663 44.1667 436.622 43.6875 434.205 43.6875C431.788 43.6875 429.559 44.2292 427.517 45.3125C425.517 46.3542 423.788 47.8333 422.33 49.75C420.913 51.625 419.913 53.8125 419.33 56.3125ZM428.892 99.5625C422.476 99.5625 416.913 98.3333 412.205 95.875C407.538 93.375 403.934 89.8125 401.392 85.1875C398.892 80.5625 397.642 75.0625 397.642 68.6875C397.642 62.9375 398.538 57.6042 400.33 52.6875C402.122 47.7708 404.663 43.5 407.955 39.875C411.288 36.2083 415.247 33.375 419.83 31.375C424.413 29.3333 429.517 28.3125 435.142 28.3125C441.101 28.3125 446.33 29.5208 450.83 31.9375C455.372 34.3542 458.913 37.75 461.455 42.125C463.997 46.5 465.267 51.6458 465.267 57.5625C465.267 59.3125 465.184 61.1875 465.017 63.1875C464.892 65.1875 464.622 67.0208 464.205 68.6875H417.267C417.226 69.0208 417.184 69.375 417.142 69.75C417.101 70.0833 417.08 70.4167 417.08 70.75C417.08 73.2917 417.58 75.5833 418.58 77.625C419.622 79.625 421.101 81.1875 423.017 82.3125C424.934 83.4375 427.205 84 429.83 84C432.955 84 435.622 83.2708 437.83 81.8125C440.038 80.3542 441.538 78.4375 442.33 76.0625H462.455C461.288 80.7292 459.142 84.8333 456.017 88.375C452.934 91.875 449.08 94.625 444.455 96.625C439.83 98.5833 434.642 99.5625 428.892 99.5625ZM473.457 50.6875C473.457 46.1875 474.687 42.2708 477.145 38.9375C479.603 35.6042 483.062 33.0208 487.52 31.1875C491.978 29.3125 497.228 28.375 503.27 28.375C508.937 28.375 513.937 29.3333 518.27 31.25C522.645 33.125 526.082 35.75 528.582 39.125C531.124 42.5 532.457 46.3958 532.582 50.8125H513.207C513.124 49.2292 512.624 47.8542 511.707 46.6875C510.832 45.4792 509.645 44.5417 508.145 43.875C506.645 43.2083 504.916 42.875 502.957 42.875C501.082 42.875 499.457 43.125 498.082 43.625C496.749 44.125 495.707 44.8125 494.957 45.6875C494.249 46.5625 493.895 47.6042 493.895 48.8125C493.895 50.3125 494.52 51.5417 495.77 52.5C497.02 53.4583 499.374 54.5208 502.832 55.6875L510.082 58.0625C516.541 60.2292 521.124 62.75 523.832 65.625C526.541 68.4583 527.895 72.1458 527.895 76.6875C527.895 81.2292 526.603 85.2292 524.02 88.6875C521.478 92.1458 517.895 94.8333 513.27 96.75C508.645 98.6667 503.228 99.625 497.02 99.625C490.728 99.625 485.228 98.6667 480.52 96.75C475.853 94.8333 472.187 92.125 469.52 88.625C466.895 85.125 465.499 81.0625 465.332 76.4375H485.77C485.978 78.9375 487.124 81 489.207 82.625C491.332 84.2083 494.145 85 497.645 85C499.52 85 501.124 84.7708 502.457 84.3125C503.791 83.8125 504.812 83.1042 505.52 82.1875C506.27 81.2708 506.645 80.2083 506.645 79C506.645 77.5833 506.02 76.4167 504.77 75.5C503.562 74.5833 501.291 73.5833 497.957 72.5L491.832 70.4375C485.541 68.3542 480.895 65.7083 477.895 62.5C474.937 59.2917 473.457 55.3542 473.457 50.6875Z" fill="#FF4F00"/>
</svg>
